HIERARCHY
ROOT Hips
{
	OFFSET 0.000000 103.266502 0.000000
	CHANNELS 6 Xposition Yposition Zposition Xrotation Yrotation Zrotation 
	JOINT Spine
	{
		OFFSET -0.002400 12.777504 0.315300
		CHANNELS 3 Xrotation Yrotation Zrotation
		JOINT Spine1
		{
			OFFSET -0.002067 5.816869 0.032633
			CHANNELS 3 Xrotation Yrotation Zrotation
			JOINT Spine1_split
			{
				OFFSET -0.002067 5.816869 0.032633
				CHANNELS 3 Xrotation Yrotation Zrotation
				JOINT Spine2
				{
					OFFSET -0.002067 5.816869 0.032633
					CHANNELS 3 Xrotation Yrotation Zrotation
					JOINT Neck
					{
						OFFSET -0.003700 21.199493 -0.826900
						CHANNELS 3 Xrotation Yrotation Zrotation
						JOINT Head
						{
							OFFSET 0.000000 20.442200 4.834800
							CHANNELS 3 Xrotation Yrotation Zrotation
							JOINT HeadTop_End
							{
								OFFSET 0.000000 34.668396 4.968400
								CHANNELS 3 Xrotation Yrotation Zrotation
								End Site
								{
									OFFSET 0.000000 0.000000 0.000000
								}
							}
						}
					}
					JOINT LeftShoulder
					{
						OFFSET 3.288150 8.794197 -1.372250
						CHANNELS 3 Xrotation Yrotation Zrotation
						JOINT LeftShoulder_split
						{
							OFFSET 3.288150 8.794197 -1.372250
							CHANNELS 3 Xrotation Yrotation Zrotation
							JOINT LeftArm
							{
								OFFSET 11.953299 -2.279007 -0.146200
								CHANNELS 3 Xrotation Yrotation Zrotation
								JOINT LeftForeArm
								{
									OFFSET 18.448900 0.000000 0.000000
									CHANNELS 3 Xrotation Yrotation Zrotation
									JOINT LeftHand
									{
										OFFSET 29.527798 0.000000 0.000000
										CHANNELS 3 Xrotation Yrotation Zrotation
										JOINT LeftHandThumb1
										{
											OFFSET 10.739754 -2.369614 9.225399
											CHANNELS 3 Xrotation Yrotation Zrotation
											JOINT LeftHandThumb2
											{
												OFFSET 4.926170 -2.844131 2.844125
												CHANNELS 3 Xrotation Yrotation Zrotation
												JOINT LeftHandThumb3
												{
													OFFSET 4.614891 -2.664413 2.664409
													CHANNELS 3 Xrotation Yrotation Zrotation
													JOINT LeftHandThumb4
													{
														OFFSET 4.432465 -2.559082 2.559083
														CHANNELS 3 Xrotation Yrotation Zrotation
														End Site
														{
															OFFSET 0.000000 0.000000 0.000000
														}
													}
												}
											}
										}
										JOINT LeftHandIndex1
										{
											OFFSET 26.467674 0.187653 6.405298
											CHANNELS 3 Xrotation Yrotation Zrotation
											JOINT LeftHandIndex2
											{
												OFFSET 8.792900 0.000000 0.000000
												CHANNELS 3 Xrotation Yrotation Zrotation
												JOINT LeftHandIndex3
												{
													OFFSET 10.075203 0.000000 0.000000
													CHANNELS 3 Xrotation Yrotation Zrotation
													End Site
													{
														OFFSET 0.000000 0.000000 0.000000
													}
												}
											}
										}
										JOINT LeftHandMiddle1
										{
											OFFSET 25.764404 0.000000 0.000000
											CHANNELS 3 Xrotation Yrotation Zrotation
											JOINT LeftHandMiddle2
											{
												OFFSET 9.393974 0.000000 0.000000
												CHANNELS 3 Xrotation Yrotation Zrotation
												JOINT LeftHandMiddle3
												{
													OFFSET 10.771950 0.000000 0.000000
													CHANNELS 3 Xrotation Yrotation Zrotation
													End Site
													{
														OFFSET 0.000000 0.000000 0.000000
													}
												}
											}
										}
										JOINT LeftHandRing1
										{
											OFFSET 24.660927 0.144547 -6.225808
											CHANNELS 3 Xrotation Yrotation Zrotation
											JOINT LeftHandRing2
											{
												OFFSET 9.393799 0.000000 0.000000
												CHANNELS 3 Xrotation Yrotation Zrotation
												JOINT LeftHandRing3
												{
													OFFSET 9.928497 0.000000 0.000000
													CHANNELS 3 Xrotation Yrotation Zrotation
													End Site
													{
														OFFSET 0.000000 0.000000 0.000000
													}
												}
											}
										}
										JOINT LeftHandPinky1
										{
											OFFSET 23.655350 0.125290 -12.815412
											CHANNELS 3 Xrotation Yrotation Zrotation
											JOINT LeftHandPinky2
											{
												OFFSET 8.425102 0.000000 0.000000
												CHANNELS 3 Xrotation Yrotation Zrotation
												JOINT LeftHandPinky3
												{
													OFFSET 8.147003 0.000000 0.000000
													CHANNELS 3 Xrotation Yrotation Zrotation
													End Site
													{
														OFFSET 0.000000 0.000000 0.000000
													}
												}
											}
										}
									}
								}
							}
						}
					}
					JOINT RightShoulder
					{
						OFFSET -3.249400 8.794197 -1.372250
						CHANNELS 3 Xrotation Yrotation Zrotation
						JOINT RightShoulder_split
						{
							OFFSET -3.249400 8.794197 -1.372250
							CHANNELS 3 Xrotation Yrotation Zrotation
							JOINT RightArm
							{
								OFFSET -11.953299 -2.279007 -0.146200
								CHANNELS 3 Xrotation Yrotation Zrotation
								JOINT RightForeArm
								{
									OFFSET -18.448900 0.000000 0.000000
									CHANNELS 3 Xrotation Yrotation Zrotation
									JOINT RightHand
									{
										OFFSET -29.527802 0.000000 0.000000
										CHANNELS 3 Xrotation Yrotation Zrotation
										JOINT RightHandThumb1
										{
											OFFSET -10.739754 -2.369614 9.225399
											CHANNELS 3 Xrotation Yrotation Zrotation
											JOINT RightHandThumb2
											{
												OFFSET -4.926170 -2.844131 2.844125
												CHANNELS 3 Xrotation Yrotation Zrotation
												JOINT RightHandThumb3
												{
													OFFSET -4.614891 -2.664413 2.664409
													CHANNELS 3 Xrotation Yrotation Zrotation
													JOINT RightHandThumb4
													{
														OFFSET -4.432465 -2.559082 2.559083
														CHANNELS 3 Xrotation Yrotation Zrotation
														End Site
														{
															OFFSET 0.000000 0.000000 0.000000
														}
													}
												}
											}
										}
										JOINT RightHandIndex1
										{
											OFFSET -26.467674 0.187653 6.405298
											CHANNELS 3 Xrotation Yrotation Zrotation
											JOINT RightHandIndex2
											{
												OFFSET -8.792900 0.000000 0.000000
												CHANNELS 3 Xrotation Yrotation Zrotation
												JOINT RightHandIndex3
												{
													OFFSET -10.075203 0.000000 0.000000
													CHANNELS 3 Xrotation Yrotation Zrotation
													End Site
													{
														OFFSET 0.000000 0.000000 0.000000
													}
												}
											}
										}
										JOINT RightHandMiddle1
										{
											OFFSET -25.764404 0.000000 0.000000
											CHANNELS 3 Xrotation Yrotation Zrotation
											JOINT RightHandMiddle2
											{
												OFFSET -9.393974 0.000000 0.000000
												CHANNELS 3 Xrotation Yrotation Zrotation
												JOINT RightHandMiddle3
												{
													OFFSET -10.771950 0.000000 0.000000
													CHANNELS 3 Xrotation Yrotation Zrotation
													End Site
													{
														OFFSET 0.000000 0.000000 0.000000
													}
												}
											}
										}
										JOINT RightHandRing1
										{
											OFFSET -24.660927 0.144547 -6.225808
											CHANNELS 3 Xrotation Yrotation Zrotation
											JOINT RightHandRing2
											{
												OFFSET -9.393799 0.000000 0.000000
												CHANNELS 3 Xrotation Yrotation Zrotation
												JOINT RightHandRing3
												{
													OFFSET -9.928497 0.000000 0.000000
													CHANNELS 3 Xrotation Yrotation Zrotation
													End Site
													{
														OFFSET 0.000000 0.000000 0.000000
													}
												}
											}
										}
										JOINT RightHandPinky1
										{
											OFFSET -23.655350 0.125290 -12.815412
											CHANNELS 3 Xrotation Yrotation Zrotation
											JOINT RightHandPinky2
											{
												OFFSET -8.425102 0.000000 0.000000
												CHANNELS 3 Xrotation Yrotation Zrotation
												JOINT RightHandPinky3
												{
													OFFSET -8.147003 0.000000 0.000000
													CHANNELS 3 Xrotation Yrotation Zrotation
													End Site
													{
														OFFSET 0.000000 0.000000 0.000000
													}
												}
											}
										}
									}
								}
							}
						}
					}
				}
			}
		}
	}
	JOINT LeftUpLeg
	{
		OFFSET 11.394100 -6.187798 -0.413800
		CHANNELS 3 Xrotation Yrotation Zrotation
		JOINT LeftLeg
		{
			OFFSET 0.430247 -32.302673 3.732800
			CHANNELS 3 Xrotation Yrotation Zrotation
			JOINT LeftFoot
			{
				OFFSET -0.430247 -48.264931 -6.423300
				CHANNELS 3 Xrotation Yrotation Zrotation
				JOINT LeftToeBase
				{
					OFFSET 4.230900 -16.068199 23.438400
					CHANNELS 3 Xrotation Yrotation Zrotation
					JOINT LeftToe_End
					{
						OFFSET 4.510700 0.695400 19.974600
						CHANNELS 3 Xrotation Yrotation Zrotation
						End Site
						{
							OFFSET 0.000000 0.000000 0.000000
						}
					}
				}
			}
		}
	}
	JOINT RightUpLeg
	{
		OFFSET -11.333700 -6.187798 -0.413800
		CHANNELS 3 Xrotation Yrotation Zrotation
		JOINT RightLeg
		{
			OFFSET -0.430392 -32.302628 3.733000
			CHANNELS 3 Xrotation Yrotation Zrotation
			JOINT RightFoot
			{
				OFFSET 0.430392 -48.264973 -6.423500
				CHANNELS 3 Xrotation Yrotation Zrotation
				JOINT RightToeBase
				{
					OFFSET -4.230900 -16.068199 23.438400
					CHANNELS 3 Xrotation Yrotation Zrotation
					JOINT RightToe_End
					{
						OFFSET -4.510700 0.695400 19.974600
						CHANNELS 3 Xrotation Yrotation Zrotation
						End Site
						{
							OFFSET 0.000000 0.000000 0.000000
						}
					}
				}
			}
		}
	}
}
MOTION
Frames: 4
Frame Time: 0.016667
12.033907 101.292297 -3.388707 -0.400196 -19.197785 -2.415431 4.344309 1.236295 -2.265223 0.212746 0.451139 -0.248040 0.000000 0.000000 0.000000 0.209997 0.457549 -0.249456 -0.676047 0.363725 3.241258 11.273843 13.135222 10.728868 -0.000002 -0.000000 0.000001 2.666473 -4.458580 -11.991965 0.000000 0.000000 0.000000 -11.925374 -18.438338 -60.942622 0.000001 -15.296900 0.000021 21.654188 -9.509533 -12.534857 3.397830 -6.557753 3.595400 15.782400 22.471719 8.580121 -7.032750 9.518551 11.683297 0.000001 -0.000000 0.000003 -1.195632 -0.465182 -28.245547 0.364141 2.035042 -20.288329 0.000000 -0.000003 -0.000003 0.355579 4.762384 -38.285987 0.507594 2.387218 -24.004929 0.000002 0.000003 -0.000002 6.488005 10.665022 -48.294014 0.477650 2.318872 -23.275654 -0.000002 -0.000000 0.000001 12.833108 15.275959 -52.520111 0.697250 2.773794 -28.215324 0.000000 -0.000000 -0.000000 2.229753 0.128998 15.927381 0.000000 0.000000 0.000000 5.674416 -0.408650 64.436954 0.000004 15.408092 0.000010 1.035996 6.325158 -5.049669 -1.352776 9.111900 0.370098 16.874365 -29.512790 -6.239166 -14.986391 -10.661142 -18.063084 -0.000001 -0.000001 0.000003 -1.055119 2.974094 11.633334 0.216278 -1.404172 17.511902 -0.000001 0.000001 0.000001 -0.609024 -1.094601 18.696407 0.373072 -1.828107 23.066799 -0.000001 -0.000001 -0.000002 1.805371 -6.986254 25.613594 0.549364 -2.196235 28.084462 0.000000 -0.000000 0.000002 4.328852 -11.691953 36.199036 0.703972 -2.463956 31.885734 0.000000 -0.000001 0.000002 -13.157189 6.801660 -1.206476 18.072701 9.329493 2.690330 -7.284170 19.237743 2.083784 -10.632980 -0.000003 -0.000000 0.000000 -0.000002 0.000000 -14.996949 -6.972271 -12.155799 14.610927 3.068045 2.531061 -9.906792 -3.920653 8.538957 -8.407002 -0.000006 -0.000003 -0.000002 -0.000002 -0.000000 
12.294684 101.292671 -3.271801 -0.322260 -19.498337 -2.525856 4.283193 0.981519 -2.334663 0.189584 0.383773 -0.265578 0.000000 0.000000 0.000000 0.187298 0.390525 -0.267590 -0.708657 0.408955 3.345580 11.332368 13.840954 11.023656 0.000001 -0.000000 0.000001 2.653987 -4.597923 -11.892584 0.000000 0.000000 0.000000 -12.075094 -19.153008 -61.241225 0.000008 -15.715096 0.000020 21.497064 -9.669896 -10.948848 3.397831 -6.557747 3.595397 15.782119 22.476867 8.582044 -6.906143 9.605749 11.585842 0.000001 -0.000001 0.000002 -1.165828 -0.588576 -27.380953 0.367669 2.044501 -20.386815 0.000002 0.000000 0.000000 0.364669 4.782505 -38.483229 0.512339 2.397849 -24.118653 0.000001 0.000004 0.000001 6.537718 10.676711 -48.526865 0.471584 2.304714 -23.125071 -0.000001 0.000001 0.000001 12.766426 15.313089 -52.209556 0.688193 2.756857 -28.027517 -0.000001 0.000001 0.000001 2.263680 -0.037342 16.070482 0.000000 0.000000 0.000000 5.438907 -0.171340 64.671475 -0.000001 15.685827 0.000008 1.013121 5.195175 -3.929800 -1.352778 9.111898 0.370097 16.861982 -29.498334 -6.250189 -15.020571 -10.556010 -18.134741 -0.000001 -0.000000 -0.000004 -1.134069 2.859890 12.607722 0.219262 -1.413573 17.633016 -0.000000 -0.000000 -0.000000 -0.612865 -1.120408 18.937867 0.356231 -1.788062 22.532999 -0.000000 -0.000000 0.000001 1.775705 -6.972113 25.217369 0.529207 -2.158063 27.553883 0.000001 0.000001 0.000001 4.168387 -11.681603 35.243605 0.685222 -2.433588 31.446925 -0.000000 -0.000000 -0.000001 -13.184652 6.791034 -1.265623 18.023877 9.321295 2.696247 -7.276621 19.528156 2.236358 -10.597751 0.000007 0.000000 -0.000000 -0.000000 -0.000000 -15.059196 -6.927646 -12.149537 14.513279 3.176361 2.545440 -10.014767 -3.949066 8.512592 -8.391434 -0.000001 -0.000003 -0.000002 -0.000000 0.000001 
12.540464 101.295326 -3.158450 -0.220155 -19.782453 -2.615253 4.208027 0.709750 -2.428817 0.165082 0.312359 -0.289361 0.000000 0.000000 0.000000 0.163354 0.319509 -0.292050 -0.743326 0.449657 3.455310 11.434273 14.520118 11.315072 -0.000000 -0.000000 -0.000000 2.633633 -4.716141 -11.762448 0.000000 0.000000 0.000000 -12.145294 -19.959022 -61.514637 -0.000011 -16.226677 -0.000002 21.493171 -9.651157 -9.215246 3.397828 -6.557748 3.595397 15.782090 22.484747 8.583420 -6.808634 9.671988 11.511702 -0.000002 -0.000000 -0.000002 -1.129460 -0.729827 -26.391112 0.368797 2.047549 -20.418637 -0.000001 -0.000002 -0.000000 0.367277 4.788587 -38.547016 0.516943 2.408117 -24.228769 0.000001 0.000001 -0.000002 6.588670 10.690106 -48.752483 0.466767 2.293428 -23.004977 -0.000001 -0.000001 -0.000001 12.724915 15.349701 -51.963212 0.679193 2.739892 -27.839769 -0.000001 0.000000 0.000001 2.301183 -0.222076 16.229416 0.000000 0.000000 0.000000 5.160321 0.078141 64.897780 0.000003 15.935547 0.000022 1.068246 3.974131 -2.851386 -1.352775 9.111898 0.370094 16.865255 -29.501749 -6.248147 -15.044994 -10.477222 -18.185256 -0.000001 -0.000000 0.000001 -1.209428 2.733154 13.613619 0.224443 -1.429759 17.841776 -0.000001 -0.000001 0.000001 -0.620057 -1.162468 19.354193 0.341807 -1.752905 22.066091 0.000000 0.000001 -0.000000 1.768461 -6.976984 25.051974 0.508412 -2.117754 26.996430 0.000001 0.000001 0.000001 4.032111 -11.667265 34.463348 0.664839 -2.399971 30.963566 -0.000002 -0.000000 -0.000001 -13.224430 6.776410 -1.330643 17.957180 9.312466 2.702700 -7.268056 19.814471 2.384440 -10.562545 0.000001 0.000000 -0.000001 -0.000000 0.000000 -15.136843 -6.883938 -12.147876 14.417730 3.238285 2.546007 -10.132237 -3.979373 8.502215 -8.375877 0.000003 -0.000000 -0.000001 -0.000001 -0.000000 
12.772648 101.301918 -3.048389 -0.083863 -20.058427 -2.688456 4.110171 0.432597 -2.544333 0.138034 0.240252 -0.315975 0.000000 0.000000 0.000000 0.136932 0.247830 -0.319408 -0.779925 0.485275 3.569737 11.569299 15.164379 11.594004 -0.000000 -0.000000 0.000001 2.611132 -4.805597 -11.630847 0.000000 0.000000 0.000000 -12.175094 -20.855173 -61.745272 -0.000000 -16.823733 0.000001 21.773847 -9.467335 -7.469722 3.397829 -6.557754 3.595400 15.782465 22.486808 8.582364 -6.767618 9.701841 11.479324 0.000000 -0.000000 0.000002 -1.094892 -0.883131 -25.362207 0.367664 2.044537 -20.387164 -0.000001 -0.000002 0.000001 0.363625 4.781225 -38.484055 0.522125 2.419544 -24.351241 0.000000 0.000001 -0.000001 6.647707 10.706577 -49.003592 0.463671 2.286119 -22.927591 -0.000001 0.000000 0.000001 12.730819 15.396621 -51.808822 0.670475 2.723343 -27.656735 0.000001 0.000001 -0.000003 2.342156 -0.439307 16.405418 0.000000 0.000000 0.000000 4.855278 0.354274 65.099175 -0.000002 16.165746 -0.000007 1.199199 2.678676 -1.823909 -1.352777 9.111901 0.370098 16.871570 -29.508774 -6.243225 -15.062445 -10.421738 -18.221036 0.000000 0.000001 -0.000000 -1.296308 2.624669 14.634717 0.231594 -1.451792 18.126296 -0.000000 -0.000000 -0.000001 -0.630227 -1.217378 19.921765 0.330242 -1.724113 21.684918 0.000001 -0.000001 -0.000002 1.780250 -6.994586 25.111503 0.487751 -2.076724 26.431828 0.000001 -0.000000 0.000002 3.913096 -11.644068 33.865888 0.643810 -2.364599 30.457695 -0.000001 -0.000000 0.000001 -13.291464 6.749166 -1.405071 17.880916 9.302739 2.723806 -7.276985 20.113201 2.529841 -10.527368 0.000004 0.000001 -0.000001 0.000000 -0.000000 -15.231288 -6.839694 -12.140110 14.301259 3.279602 2.545257 -10.231183 -4.008262 8.487634 -8.360321 0.000004 0.000005 -0.000001 0.000002 0.000001 
